M48
INCH
T01C0.0150
T02C0.0400
T03C0.1574
T04C0.0300
T05C0.1259
T06C0.1280
T07C0.2952
T08C0.0393
T09C0.0866
T10C0.2559
T11C0.0500
%
T01
X-018516Y+011762
X-018516Y+005284
X-020535Y+011751
X-020535Y+007027
X-021605Y+011716
X-024726Y+003190
X-020535Y+014779
X-021056Y+007438
X-021576Y+014750
X-022110Y+007814
X-019551Y+011751
X-019434Y+006369
X+004921Y-007826
X+005905Y-008811
X+005905Y+008905
X-024559Y+011568
X-025968Y+006704
X-004718Y+016451
X-004718Y-002908
X-004127Y-012817
X-003718Y-013726
X+005057Y+014183
X+005057Y-002905
X+005905Y-000590
X+005905Y-003889
X-004133Y+016141
X-003673Y+015636
X-045433Y+017985
X-045433Y+015354
X-043905Y+013015
X-043938Y+016481
X-022593Y+017913
X-022566Y+016043
X-044937Y+013019
X-028553Y+014555
X-028054Y+008667
X-040266Y+008636
X-040297Y+004244
X-032494Y+017177
X-032494Y+012739
X-043500Y+006000
X-043545Y-004255
X-005250Y+010000
X-005250Y+002250
X-005750Y+009500
X-005750Y+005500
X-006250Y+009000
X-006250Y+003250
X-006750Y+008500
X-006750Y+004250
X-007250Y+011250
X-007250Y-008250
X+005307Y+005314
X-005257Y+010887
X-005303Y+011775
X-007686Y+010373
X-007733Y-003925
X-033453Y-006412
X-033453Y-004543
X-026630Y-006319
X-026661Y-004499
X-017658Y-005228
X-017690Y-002300
X-029470Y-005393
X-028595Y-006345
X-018620Y-005393
X-017507Y-006507
X-039383Y-006383
X-039008Y-006758
X-032484Y-009000
X-032484Y-010250
X-021673Y-009000
X-021673Y-010500
X-010830Y-009000
X-010830Y-010500
X-044301Y+002572
X-015750Y+000250
X-015843Y+001778
X-022750Y+000250
X-022750Y+001750
X-030500Y+000250
X-030516Y+001824
X-044301Y+001500
X-042974Y-007025
X-043724Y-007775
X-045000Y-008448
X-046000Y-008448
X-046000Y-010417
X-045000Y-010417
X-043684Y-011434
X-042934Y-012184
X-039250Y-013779
X-036750Y-013779
X-034750Y-013779
X-032000Y-013779
X-029250Y-013779
X-026000Y-013779
X-024327Y-013779
X-021750Y-013779
X-017750Y-013779
X-014750Y-013779
X-012202Y-012547
X-012609Y-008140
X-015250Y-008335
X-023405Y-008094
X-026268Y-008268
X-034311Y-008188
X-036750Y-008324
X-033442Y-012057
X-023024Y-012475
T02
X-036405Y-007362
X-037405Y-007362
X-038405Y-007362
X-020673Y-007362
X-021673Y-007362
X-022673Y-007362
X-031484Y-007362
X-032484Y-007362
X-033484Y-007362
X-025578Y-007362
X-026578Y-007362
X-027578Y-007362
X-014751Y-007362
X-015751Y-007362
X-016751Y-007362
X-009830Y-007362
X-010830Y-007362
X-011830Y-007362
X-001968Y+006299
X-001968Y+005299
X-001968Y+004299
X-001968Y+003299
X-001968Y+002299
X-001968Y+001299
X-001968Y-001921
X-001968Y-002921
X-001968Y-003921
X-001968Y-004921
X-001968Y-012748
X-001968Y-013748
X-001968Y+013779
X-001968Y+011811
X-001968Y+009842
X-001968Y-007826
X-001968Y-008826
X-001968Y-009826
X-045775Y+004049
X-045775Y+005049
X-045775Y+006049
X-047000Y+017500
X-047000Y+016500
X-047000Y+015500
X-047000Y+014500
X-047000Y+013500
X-047000Y+012500
X-052169Y-002460
X-052169Y-001460
X-045511Y-018391
X-052401Y-018391
T03
X-041342Y-005393
X-041338Y-013779
X-035437Y-010314
X-024610Y-010314
X-013783Y-010314
T04
X-036421Y-006377
X-036421Y-002377
X-031500Y-006377
X-031500Y-002377
X-025594Y-006377
X-025594Y-002377
X-020673Y-006377
X-020673Y-002377
X-014767Y-006377
X-014767Y-002377
X-009846Y-006377
X-009846Y-002377
X-030574Y+002500
X-031574Y+002500
X-032574Y+002500
X-033574Y+002500
X-033574Y-000500
X-032574Y-000500
X-031574Y-000500
X-030574Y-000500
X-034511Y+004468
X-031511Y+004468
X-032543Y+006437
X-031543Y+006437
X-029590Y+002500
X-029590Y-000500
X-030574Y-001484
X-032543Y-001484
X-033527Y+003484
X-030574Y+003484
X-035496Y+005452
X-031496Y+005452
X-022700Y+002452
X-023700Y+002452
X-024700Y+002452
X-025700Y+002452
X-025700Y-000547
X-024700Y-000547
X-023700Y-000547
X-022700Y-000547
X-015811Y+002452
X-016811Y+002452
X-017811Y+002452
X-018811Y+002452
X-018811Y-000547
X-017811Y-000547
X-016811Y-000547
X-015811Y-000547
X-022700Y-001484
X-024669Y-001484
X-015811Y-001484
X-017779Y-001484
X-021716Y+002452
X-021716Y-000547
X-014826Y+002452
X-014826Y-000547
X-025653Y+003437
X-022700Y+003437
X-018763Y+003437
X-015811Y+003437
X-026637Y+004421
X-023637Y+004421
X-019748Y+004421
X-016748Y+004421
X-027622Y+005405
X-023622Y+005405
X-020732Y+005405
X-016732Y+005405
X-024669Y+006389
X-023669Y+006389
X-017779Y+006389
X-016779Y+006389
X-031559Y+012295
X-030559Y+012295
X-029559Y+012295
X-028559Y+012295
X-027559Y+012295
X-026559Y+012295
X-025559Y+012295
X-024559Y+012295
X-023559Y+012295
X-022559Y+012295
X-021559Y+012295
X-020559Y+012295
X-019559Y+012295
X-018559Y+012295
X-018559Y+015295
X-019559Y+015295
X-020559Y+015295
X-021559Y+015295
X-022559Y+015295
X-023559Y+015295
X-024559Y+015295
X-025559Y+015295
X-026559Y+015295
X-027559Y+015295
X-028559Y+015295
X-029559Y+015295
X-030559Y+015295
X-031551Y+015295
X-048137Y+016466
X-049137Y+015966
X-048137Y+015466
X-049137Y+014966
X-048137Y+014466
X-049137Y+013966
X-038448Y-011279
X-038448Y-015279
X-027622Y-015216
X-027622Y-011216
X-016795Y-015216
X-016795Y-011216
X+004187Y+005314
X+000187Y+005314
X+004187Y+004330
X+000187Y+004330
X+004187Y+003346
X+000187Y+003346
X+004187Y+002362
X+000187Y+002362
X+000968Y+000393
X+001968Y+000393
X+000937Y-003952
X+000937Y-002952
X+000937Y-008858
X+000937Y-007858
X-046653Y-008448
X-046653Y-010417
X-023622Y+017913
X-023622Y+016913
X-049318Y+018828
X-048318Y+018828
X-042057Y+017216
X-042057Y+013216
X-044881Y+012318
X-043881Y+012318
X-044275Y+003549
X-040275Y+003549
X-041850Y+002442
X-045850Y+002442
X-045275Y+008549
X-043275Y+008549
X-048275Y-002450
X-049275Y-002450
X-051129Y-004236
X-047129Y-004236
T05
X-035358Y+013279
X-012858Y+013279
X-036358Y+001279
X-011858Y+001279
X+002952Y+014763
X-042500Y-010000
X-006279Y-010000
X-053543Y+005118
T06
X-051637Y+017216
X-051637Y+013216
T07
X+002952Y+011811
T08
X-001181Y-016102
X+000787Y-017322
X-001181Y-018543
T09
X-001181Y-020196
X-050984Y-018391
T10
X-048464Y-018391
T11
X-052250Y-011437
X-052250Y-007500
M30
